<svg width="62" height="62" viewBox="0 0 62 62" fill="none" xmlns="http://www.w3.org/2000/svg">
<path d="M31 0.9375C25.0542 0.9375 19.2419 2.70063 14.2982 6.00394C9.35443 9.30725 5.50124 14.0024 3.22589 19.4956C0.950526 24.9888 0.355188 31.0333 1.51516 36.8649C2.67512 42.6965 5.5383 48.0531 9.74262 52.2574C13.9469 56.4617 19.3036 59.3249 25.1351 60.4849C30.9667 61.6448 37.0112 61.0495 42.5044 58.7741C47.9976 56.4988 52.6928 52.6456 55.9961 47.7018C59.2994 42.7581 61.0625 36.9458 61.0625 31C61.0541 23.0295 57.8841 15.3879 52.2481 9.7519C46.6121 4.11591 38.9705 0.945917 31 0.9375ZM31 56.4375C25.969 56.4375 21.0509 54.9456 16.8677 52.1505C12.6845 49.3554 9.42413 45.3826 7.49883 40.7345C5.57352 36.0864 5.06978 30.9718 6.05129 26.0374C7.0328 21.103 9.45549 16.5705 13.013 13.013C16.5705 9.45547 21.103 7.03279 26.0374 6.05127C30.9718 5.06976 36.0864 5.57351 40.7345 7.49881C45.3826 9.42412 49.3554 12.6845 52.1505 16.8677C54.9456 21.0509 56.4375 25.9689 56.4375 31C56.4299 37.7441 53.7474 44.2098 48.9786 48.9786C44.2098 53.7474 37.7441 56.4298 31 56.4375ZM41.8861 31.6764C42.1011 31.8912 42.2717 32.1462 42.3881 32.427C42.5044 32.7077 42.5643 33.0086 42.5643 33.3125C42.5643 33.6164 42.5044 33.9173 42.3881 34.198C42.2717 34.4788 42.1011 34.7338 41.8861 34.9486L32.6361 44.1986C32.4213 44.4136 32.1663 44.5842 31.8856 44.7005C31.6048 44.8169 31.3039 44.8768 31 44.8768C30.6961 44.8768 30.3952 44.8169 30.1145 44.7005C29.8337 44.5842 29.5787 44.4136 29.3639 44.1986L20.1139 34.9486C19.68 34.5147 19.4362 33.9262 19.4362 33.3125C19.4362 32.6988 19.68 32.1103 20.1139 31.6764C20.5478 31.2425 21.1364 30.9987 21.75 30.9987C22.3637 30.9987 22.9522 31.2425 23.3861 31.6764L28.6875 36.9807V19.4375C28.6875 18.8242 28.9312 18.236 29.3648 17.8023C29.7985 17.3686 30.3867 17.125 31 17.125C31.6133 17.125 32.2015 17.3686 32.6352 17.8023C33.0689 18.236 33.3125 18.8242 33.3125 19.4375V36.9807L38.6139 31.6764C38.8287 31.4614 39.0837 31.2908 39.3645 31.1745C39.6452 31.0581 39.9461 30.9982 40.25 30.9982C40.5539 30.9982 40.8548 31.0581 41.1356 31.1745C41.4163 31.2908 41.6713 31.4614 41.8861 31.6764Z" fill="#FAFAFA"/>
</svg>
