<?xml version="1.0" encoding="utf-8"?>
<!-- Generator: Adobe Illustrator 27.9.0, SVG Export Plug-In . SVG Version: 6.00 Build 0)  -->
<svg version="1.1" id="Слой_1" xmlns="http://www.w3.org/2000/svg" xmlns:xlink="http://www.w3.org/1999/xlink" x="0px" y="0px"
	 viewBox="0 0 466.66 449.72" style="enable-background:new 0 0 466.66 449.72;" xml:space="preserve">
<style type="text/css">
	.st0{fill:#F8F8F8;}
</style>
<path class="st0" d="M344.7,113.49c-23.26-24.37-67.31-29.88-111.37-30.46c-44.06,0.58-88.11,6.09-111.37,30.46
	c-24.37,23.25-29.89,67.31-30.46,111.37c0.58,44.06,6.09,88.11,30.46,111.37c23.26,24.37,67.31,29.88,111.37,30.46
	c44.06-0.58,88.11-6.09,111.37-30.46c24.37-23.25,29.89-67.31,30.46-111.37C374.58,180.81,369.07,136.75,344.7,113.49z M286.92,230
	l-12.99,4.33c-14.48,4.83-25.35,16.92-28.62,31.82l-6.69,30.5c-1.25,5.68-9.34,5.68-10.59,0l-6.69-30.5
	c-3.27-14.91-14.14-27-28.62-31.82L179.74,230c-4.94-1.65-4.94-8.64,0-10.28l12.99-4.33c14.48-4.83,25.35-16.92,28.62-31.82
	l6.69-30.5c1.25-5.68,9.34-5.68,10.59,0l6.69,30.5c3.27,14.91,14.14,27,28.62,31.82l12.99,4.33
	C291.86,221.37,291.86,228.36,286.92,230z M276.78,176.49c-7.65,0-13.85-6.2-13.85-13.85c0-7.65,6.2-13.85,13.85-13.85
	c7.65,0,13.85,6.2,13.85,13.85C290.63,170.3,284.43,176.49,276.78,176.49z"/>
</svg>
