<?xml version="1.0" encoding="utf-8"?>
<!-- Generator: Adobe Illustrator 27.9.0, SVG Export Plug-In . SVG Version: 6.00 Build 0)  -->
<svg version="1.1" id="Слой_1" xmlns="http://www.w3.org/2000/svg" xmlns:xlink="http://www.w3.org/1999/xlink" x="0px" y="0px"
	 viewBox="0 0 3000 3000" style="enable-background:new 0 0 3000 3000;" xml:space="preserve">
<style type="text/css">
	.st0{fill:#FF8269;}
	.st1{fill:#FAFAFA;}
	.st2{fill:#1A1A1A;}
	.st3{fill:#FF0B97;}
</style>
<path class="st0" d="M1500,975.67c-162.87,2.14-325.75,22.52-411.71,112.62c-90.1,85.97-110.48,248.84-112.62,411.71
	c2.13,162.87,22.52,325.74,112.62,411.71c85.97,90.1,248.84,110.48,411.71,112.62c162.87-2.14,325.74-22.51,411.71-112.62
	c90.11-85.97,110.48-248.84,112.62-411.71c-2.14-162.87-22.51-325.75-112.62-411.71C1825.74,998.19,1662.87,977.81,1500,975.67z
	 M1698.11,1519.01l-48.01,16.01c-53.52,17.85-93.71,62.54-105.8,117.65l-24.73,112.77c-4.61,20.99-34.54,20.99-39.15,0
	l-24.73-112.77c-12.09-55.11-52.28-99.8-105.8-117.65l-48.01-16.01c-18.27-6.09-18.27-31.93,0-38.02l48.01-16.01
	c53.52-17.85,93.71-62.54,105.8-117.65l24.73-112.77c4.61-20.99,34.54-20.99,39.15,0l24.73,112.77
	c12.09,55.11,52.27,99.8,105.8,117.65l48.01,16.01C1716.38,1487.08,1716.38,1512.92,1698.11,1519.01z M1660.63,1321.19
	c-28.27,0-51.19-22.92-51.19-51.19c0-28.27,22.92-51.19,51.19-51.19c28.27,0,51.19,22.92,51.19,51.19
	C1711.81,1298.28,1688.89,1321.19,1660.63,1321.19z"/>
</svg>
