<svg width="15" height="16" viewBox="0 0 15 16" fill="none" xmlns="http://www.w3.org/2000/svg">
<path d="M8.04933 14.4914C8.04933 14.9854 7.86248 15.2324 7.48879 15.2324C7.1151 15.2324 6.92825 14.9854 6.92825 14.4914L6.90583 8.31625H0.73991C0.246637 8.31625 0 8.12164 0 7.73242C0 7.35817 0.246637 7.17105 0.73991 7.17105H6.92825V0.973441C6.92825 0.479428 7.12257 0.232422 7.51121 0.232422C7.8849 0.232422 8.07175 0.479428 8.07175 0.973441V7.14859L14.2601 7.17105C14.7534 7.17105 15 7.35817 15 7.73242C15 8.10667 14.7534 8.2938 14.2601 8.2938L8.07175 8.31625L8.04933 14.4914Z" fill="#FF686D"/>
</svg>
