<svg width="41" height="54" viewBox="0 0 41 54" fill="none" xmlns="http://www.w3.org/2000/svg">
<path fill-rule="evenodd" clip-rule="evenodd" d="M34.2963 29.9645L38.8458 28.4474C40.5771 27.8703 40.5771 25.4216 38.8458 24.8445L34.2963 23.3274C29.2237 21.6359 25.4162 17.401 24.2705 12.1787L21.9271 1.49249C21.4902 -0.49655 18.654 -0.49655 18.2172 1.49249L15.8737 12.1787C14.728 17.401 10.9196 21.6359 5.84796 23.3274L1.29847 24.8445C-0.432823 25.4216 -0.432823 27.8703 1.29847 28.4474L5.84796 29.9645C10.9196 31.656 14.728 35.8909 15.8737 41.1132L18.2172 51.7994C18.654 53.7885 21.4902 53.7885 21.9271 51.7994L24.2705 41.1132C25.4162 35.8909 29.2247 31.656 34.2963 29.9645ZM30.4433 4.85083C30.4433 7.52974 32.6152 9.70166 35.2941 9.70166C37.9721 9.70166 40.144 7.53068 40.145 4.85083C40.145 2.17193 37.973 0 35.2941 0C32.6152 0 30.4433 2.17193 30.4433 4.85083Z" fill="#FAFAFA"/>
</svg>
